<svg version="1.0" preserveAspectRatio="xMidYMid meet" viewBox="62.25 128.999996904 249.75 96.74999767800001" zoomAndPan="magnify" xmlns:xlink="http://www.w3.org/1999/xlink" xmlns="http://www.w3.org/2000/svg" style="max-height: 500px" width="249.75" height="96.74999767800001"><defs><g/></defs><g fill-opacity="1" fill="#ffffff" data-darkreader-inline-fill="" style="--darkreader-inline-fill: var(--darkreader-background-ffffff, #181a1b);"><g transform="translate(66.699534, 212.624986)"><g><path d="M 18.09375 0 L 1.515625 0 C 3.085938 -5.164062 4.554688 -9.988281 5.921875 -14.46875 C 7.296875 -18.957031 8.601562 -23.253906 9.84375 -27.359375 C 11.082031 -31.460938 12.320312 -35.566406 13.5625 -39.671875 C 14.800781 -43.773438 16.09375 -48.015625 17.4375 -52.390625 C 18.78125 -56.773438 20.210938 -61.503906 21.734375 -66.578125 C 22.296875 -68.347656 23.003906 -70.003906 23.859375 -71.546875 C 24.722656 -73.097656 25.828125 -74.351562 27.171875 -75.3125 C 28.515625 -76.28125 30.097656 -76.765625 31.921875 -76.765625 C 33.796875 -76.765625 35.390625 -76.28125 36.703125 -75.3125 C 38.023438 -74.351562 39.128906 -73.097656 40.015625 -71.546875 C 40.898438 -70.003906 41.597656 -68.347656 42.109375 -66.578125 C 43.628906 -61.503906 45.054688 -56.773438 46.390625 -52.390625 C 47.734375 -48.015625 49.023438 -43.773438 50.265625 -39.671875 C 51.515625 -35.566406 52.769531 -31.460938 54.03125 -27.359375 C 55.300781 -23.253906 56.609375 -18.957031 57.953125 -14.46875 C 59.296875 -9.988281 60.75 -5.164062 62.3125 0 L 50.6875 0 C 49.125 -5.269531 47.671875 -10.144531 46.328125 -14.625 C 44.984375 -19.113281 43.703125 -23.4375 42.484375 -27.59375 L 17.09375 -27.59375 C 17 -23.382812 16.972656 -19.40625 17.015625 -15.65625 C 17.066406 -11.90625 17.191406 -8.648438 17.390625 -5.890625 C 17.597656 -3.128906 17.832031 -1.164062 18.09375 0 Z M 17.171875 -28.734375 L 42.109375 -28.734375 C 40.941406 -32.734375 39.75 -36.695312 38.53125 -40.625 C 37.3125 -44.550781 36.054688 -48.640625 34.765625 -52.890625 C 33.472656 -57.148438 32.039062 -61.710938 30.46875 -66.578125 C 30.21875 -67.441406 29.863281 -68.125 29.40625 -68.625 C 28.957031 -69.132812 28.300781 -69.390625 27.4375 -69.390625 C 26.070312 -69.390625 24.851562 -68.601562 23.78125 -67.03125 C 22.71875 -65.457031 21.804688 -63.316406 21.046875 -60.609375 C 20.285156 -57.898438 19.640625 -54.804688 19.109375 -51.328125 C 18.578125 -47.859375 18.160156 -44.1875 17.859375 -40.3125 C 17.554688 -36.4375 17.328125 -32.578125 17.171875 -28.734375 Z M 17.171875 -28.734375"/></g></g></g><g fill-opacity="1" fill="#ffffff" data-darkreader-inline-fill="" style="--darkreader-inline-fill: var(--darkreader-background-ffffff, #181a1b);"><g transform="translate(127.496119, 212.624986)"><g><path d="M 5.3125 -16.71875 L 5.3125 -76 L 21.125 -76 C 19.300781 -72.351562 17.640625 -68.414062 16.140625 -64.1875 C 14.648438 -59.957031 13.320312 -55.675781 12.15625 -51.34375 C 10.988281 -47.007812 10 -42.851562 9.1875 -38.875 C 8.382812 -34.894531 7.765625 -31.332031 7.328125 -28.1875 C 6.898438 -25.050781 6.6875 -22.597656 6.6875 -20.828125 C 6.6875 -17.785156 7.472656 -15.414062 9.046875 -13.71875 C 10.617188 -12.019531 12.945312 -10.828125 16.03125 -10.140625 C 19.125 -9.460938 22.953125 -9.125 27.515625 -9.125 C 30.046875 -9.125 32.523438 -9.171875 34.953125 -9.265625 C 37.390625 -9.367188 39.59375 -9.648438 41.5625 -10.109375 C 43.539062 -10.566406 45.113281 -11.3125 46.28125 -12.34375 C 47.445312 -13.382812 48.03125 -14.867188 48.03125 -16.796875 L 47.953125 -76 L 58.96875 -76 L 58.96875 -45.90625 C 58.96875 -42.863281 58.664062 -39.609375 58.0625 -36.140625 C 57.457031 -32.671875 56.519531 -29.1875 55.25 -25.6875 C 53.988281 -22.1875 52.394531 -18.851562 50.46875 -15.6875 C 48.539062 -12.519531 46.269531 -9.707031 43.65625 -7.25 C 41.050781 -4.800781 38.101562 -2.851562 34.8125 -1.40625 C 31.519531 0.0390625 27.84375 0.765625 23.78125 0.765625 C 19.78125 0.765625 16.398438 -0.046875 13.640625 -1.671875 C 10.878906 -3.296875 8.800781 -5.4375 7.40625 -8.09375 C 6.007812 -10.75 5.3125 -13.625 5.3125 -16.71875 Z M 5.3125 -16.71875"/></g></g></g><g fill-opacity="1" fill="#ffffff" data-darkreader-inline-fill="" style="--darkreader-inline-fill: var(--darkreader-background-ffffff, #181a1b);"><g transform="translate(187.988726, 212.624986)"><g><path d="M 16.34375 0 L 5.3125 0 L 5.3125 -76 L 43.859375 -76 C 46.640625 -76 48.925781 -75.335938 50.71875 -74.015625 C 52.519531 -72.703125 53.875 -71.046875 54.78125 -69.046875 C 55.695312 -67.046875 56.15625 -65.003906 56.15625 -62.921875 C 56.15625 -59.890625 55.546875 -57.296875 54.328125 -55.140625 C 53.117188 -52.984375 51.5625 -51.15625 49.65625 -49.65625 C 47.757812 -48.164062 45.734375 -46.925781 43.578125 -45.9375 C 41.429688 -44.945312 39.40625 -44.082031 37.5 -43.34375 C 35.601562 -42.613281 34.046875 -41.929688 32.828125 -41.296875 C 31.617188 -40.671875 31.015625 -39.976562 31.015625 -39.21875 C 31.015625 -38.457031 31.429688 -37.203125 32.265625 -35.453125 C 33.097656 -33.703125 34.234375 -31.632812 35.671875 -29.25 C 37.117188 -26.875 38.726562 -24.378906 40.5 -21.765625 C 42.28125 -19.160156 44.117188 -16.59375 46.015625 -14.0625 C 47.921875 -11.53125 49.742188 -9.238281 51.484375 -7.1875 C 53.234375 -5.132812 54.816406 -3.5 56.234375 -2.28125 C 57.660156 -1.0625 58.753906 -0.453125 59.515625 -0.453125 L 59.515625 0 L 46.96875 0 C 45.5 0 44.367188 -0.125 43.578125 -0.375 C 42.796875 -0.632812 42.050781 -1.164062 41.34375 -1.96875 C 40.632812 -2.78125 39.617188 -4.050781 38.296875 -5.78125 C 37.035156 -7.445312 35.671875 -9.332031 34.203125 -11.4375 C 32.734375 -13.539062 31.285156 -15.707031 29.859375 -17.9375 C 28.441406 -20.164062 27.148438 -22.316406 25.984375 -24.390625 C 24.828125 -26.472656 23.90625 -28.363281 23.21875 -30.0625 C 22.53125 -31.757812 22.1875 -33.085938 22.1875 -34.046875 C 22.1875 -35.265625 22.742188 -36.351562 23.859375 -37.3125 C 24.972656 -38.28125 26.390625 -39.242188 28.109375 -40.203125 C 29.835938 -41.160156 31.6875 -42.234375 33.65625 -43.421875 C 35.632812 -44.617188 37.484375 -46.039062 39.203125 -47.6875 C 40.929688 -49.332031 42.351562 -51.34375 43.46875 -53.71875 C 44.582031 -56.101562 45.140625 -58.945312 45.140625 -62.25 C 45.140625 -64.625 44.722656 -66.757812 43.890625 -68.65625 C 43.054688 -70.5625 41.710938 -72.070312 39.859375 -73.1875 C 38.015625 -74.300781 35.597656 -74.859375 32.609375 -74.859375 L 16.34375 -74.859375 Z M 16.34375 0"/></g></g></g><g fill-opacity="1" fill="#ffffff" data-darkreader-inline-fill="" style="--darkreader-inline-fill: var(--darkreader-background-ffffff, #181a1b);"><g transform="translate(244.45354, 212.624986)"><g><path d="M 18.09375 0 L 1.515625 0 C 3.085938 -5.164062 4.554688 -9.988281 5.921875 -14.46875 C 7.296875 -18.957031 8.601562 -23.253906 9.84375 -27.359375 C 11.082031 -31.460938 12.320312 -35.566406 13.5625 -39.671875 C 14.800781 -43.773438 16.09375 -48.015625 17.4375 -52.390625 C 18.78125 -56.773438 20.210938 -61.503906 21.734375 -66.578125 C 22.296875 -68.347656 23.003906 -70.003906 23.859375 -71.546875 C 24.722656 -73.097656 25.828125 -74.351562 27.171875 -75.3125 C 28.515625 -76.28125 30.097656 -76.765625 31.921875 -76.765625 C 33.796875 -76.765625 35.390625 -76.28125 36.703125 -75.3125 C 38.023438 -74.351562 39.128906 -73.097656 40.015625 -71.546875 C 40.898438 -70.003906 41.597656 -68.347656 42.109375 -66.578125 C 43.628906 -61.503906 45.054688 -56.773438 46.390625 -52.390625 C 47.734375 -48.015625 49.023438 -43.773438 50.265625 -39.671875 C 51.515625 -35.566406 52.769531 -31.460938 54.03125 -27.359375 C 55.300781 -23.253906 56.609375 -18.957031 57.953125 -14.46875 C 59.296875 -9.988281 60.75 -5.164062 62.3125 0 L 50.6875 0 C 49.125 -5.269531 47.671875 -10.144531 46.328125 -14.625 C 44.984375 -19.113281 43.703125 -23.4375 42.484375 -27.59375 L 17.09375 -27.59375 C 17 -23.382812 16.972656 -19.40625 17.015625 -15.65625 C 17.066406 -11.90625 17.191406 -8.648438 17.390625 -5.890625 C 17.597656 -3.128906 17.832031 -1.164062 18.09375 0 Z M 17.171875 -28.734375 L 42.109375 -28.734375 C 40.941406 -32.734375 39.75 -36.695312 38.53125 -40.625 C 37.3125 -44.550781 36.054688 -48.640625 34.765625 -52.890625 C 33.472656 -57.148438 32.039062 -61.710938 30.46875 -66.578125 C 30.21875 -67.441406 29.863281 -68.125 29.40625 -68.625 C 28.957031 -69.132812 28.300781 -69.390625 27.4375 -69.390625 C 26.070312 -69.390625 24.851562 -68.601562 23.78125 -67.03125 C 22.71875 -65.457031 21.804688 -63.316406 21.046875 -60.609375 C 20.285156 -57.898438 19.640625 -54.804688 19.109375 -51.328125 C 18.578125 -47.859375 18.160156 -44.1875 17.859375 -40.3125 C 17.554688 -36.4375 17.328125 -32.578125 17.171875 -28.734375 Z M 17.171875 -28.734375"/></g></g></g></svg>